# xmcd
#
# Track frame offsets:
#	225
#	16138
#	33113
#	47148
#	63527
#	76214
#	95637
#	112537
#	133469
#	150859
#	170801
#	187135
#	203457
#
# Disc length: 3021 seconds
#
# Revision: 0
# Processed by: cddbd v1.5PL3 Copyright (c) Steve Scherf et al.
# Submitted via: audiograbber 1.83.01
#
DISCID=a20bca0d
DTITLE=Sinopsis - Para que goce mi gente
DYEAR=1900
DGENRE=
TTITLE0=Cumbia morena
TTITLE1=Para que goce mi gente
TTITLE2=Con las palmas arriba
TTITLE3=Te veré mañana
TTITLE4=A ella le gusta eso
TTITLE5=Chiquita
TTITLE6=Arriba y abajo
TTITLE7=La rueda de mi motor
TTITLE8=Carita de ternura
TTITLE9=Eres tu
TTITLE10=Cantinero
TTITLE11=Amor verdadero
TTITLE12=Sueños
EXTD=
EXTT0=
EXTT1=
EXTT2=
EXTT3=
EXTT4=
EXTT5=
EXTT6=
EXTT7=
EXTT8=
EXTT9=
EXTT10=
EXTT11=
EXTT12=
PLAYORDER=
